<svg xmlns="http://www.w3.org/2000/svg" fill="none" viewBox="0 0 600 600"><g fill="#08251a" clip-path="url(#a)"><path d="M542.336 0H57.664C25.95 0 0 25.973 0 57.719V542.28C0 574.026 25.949 600 57.664 600h484.672C574.051 600 600 574.026 600 542.281V57.719C600 25.973 574.051 0 542.336 0M553 542.281c0 5.81-4.884 10.719-10.664 10.719H57.664C51.884 553 47 548.091 47 542.281V57.719C47 51.909 51.883 47 57.664 47h484.672C548.116 47 553 51.909 553 57.719z"/><path d="M265.081 288.23H106.393c-12.979 0-23.5 10.521-23.5 23.5s10.521 23.5 23.5 23.5h158.688c12.979 0 23.5-10.521 23.5-23.5s-10.521-23.5-23.5-23.5m0 85.512H106.393c-12.979 0-23.5 10.521-23.5 23.5s10.521 23.5 23.5 23.5h158.688c12.979 0 23.5-10.522 23.5-23.5s-10.521-23.5-23.5-23.5m0 85.511H106.393c-12.979 0-23.5 10.522-23.5 23.5s10.521 23.5 23.5 23.5h158.688c12.979 0 23.5-10.521 23.5-23.5s-10.521-23.5-23.5-23.5M494.314 86.282H105.687c-12.589 0-22.794 10.205-22.794 22.793v116.553c0 12.588 10.205 22.793 22.794 22.793h388.627c12.588 0 22.793-10.205 22.793-22.793V109.075c0-12.588-10.205-22.793-22.793-22.793m-96.689 118.383q-3.006 6.439-10.649 6.439H212.994q-7.644 0-10.649-6.439-3.005-6.433 1.447-12.331l31.863-41.919q3.675-4.938 9.294-4.938 5.622 0 9.293 4.75l30.161 38.099 45.743-59.54q3.67-4.934 9.385-5.175 5.71-.241 9.385 4.692l47.445 64.031q4.268 5.898 1.264 12.331m114.461 219.999-18.068-14.648q1.593-6.327 1.692-12.474.098-6.152-1.495-12.878l18.072-14.845q4.14-2.902 4.714-7.523.58-4.614-2.008-8.552l-12.5-21.214q-2.385-3.942-6.328-5.194-3.937-1.253-8.195-.218l-22.171 6.566q-4.937-4.377-10.467-7.347-5.532-2.965-11.859-4.315l-4.62-23.325q-.834-4.455-4.357-7.461t-8.299-3.006h-22.528q-4.775 0-8.294 3.006-3.524 3.006-4.362 7.461l-4.615 23.325a55.4 55.4 0 0 0-11.962 4.418 46 46 0 0 0-10.364 7.244l-22.17-6.566q-4.259-1.035-8.201.218-3.937 1.251-6.328 5.194l-12.495 21.214q-2.587 3.938-2.008 8.552.574 4.621 4.714 7.523l18.067 14.845q-1.39 6.53-1.391 12.78 0 6.245 1.391 12.572l-18.067 14.648q-4.14 2.908-4.615 7.621-.477 4.72 2.111 8.657l12.293 21.016q2.39 3.938 6.328 5.195 3.942 1.252 8.201.218l22.17-6.566q4.931 4.573 10.266 7.342 5.334 2.768 12.06 4.32l4.616 23.319q.837 4.46 4.361 7.466 3.519 3.001 8.294 3.001h22.528q4.776 0 8.299-3.001 3.523-3.006 4.357-7.466l4.62-23.319q6.726-1.553 12.055-4.419 5.335-2.866 10.271-7.243l22.171 6.565q4.258 1.035 8.195-.217 3.943-1.257 6.328-5.195l12.299-21.017q2.788-4.335 1.909-9.054-.874-4.713-4.615-7.223m-67.34 2.391q-12.139 12.138-29.813 12.138c-11.783 0-21.715-4.046-29.807-12.138q-12.14-12.139-12.139-29.813c0-11.783 4.046-21.716 12.139-29.808q12.137-12.143 29.807-12.143 17.672 0 29.813 12.143 12.138 12.138 12.138 29.808c0 11.779-4.046 21.72-12.138 29.813"/></g><defs><clipPath id="a"><path fill="#fff" d="M0 0h600v600H0z"/></clipPath></defs></svg>