<svg xmlns="http://www.w3.org/2000/svg" fill="none" viewBox="0 0 600 600"><g clip-path="url(#a)"><path fill="#08251a" stroke="#08251a" d="M300 .5h.395c41.449 0 80.213 7.88 116.454 23.637l1.27.556.004.001a299 299 0 0 1 52.026 28.8h.002C485.133 63.764 499.06 75.3 511.88 88.12c14.852 14.852 27.98 31.141 39.412 48.865l.001.001a299 299 0 0 1 23.796 44.391l.001.003q.389.883.773 1.77c15.757 36.399 23.637 75.322 23.637 116.614v.052l-.001.065.001.065V300q-.001 4.305-.122 8.581c-.807 29.35-5.657 57.534-14.549 84.266l-.001.003c-29.087 89.288-98.992 160.146-187.682 190.542l-.001.001c-30.646 10.678-62.977 16.107-96.909 16.107h-.053l-.066-.001-.064.001H300q-4.161 0-8.295-.114c-29.933-.791-58.513-5.76-85.62-14.907l-.004-.001-2.136-.714C113.677 553.218 42.708 480.809 14.148 389.645l-.002-.003-.711-2.262C6.182 363.969 1.979 339.534.827 314.113v-.001A305 305 0 0 1 .5 300v-.395c0-41.449 7.88-80.213 23.637-116.454v-.001q.384-.887.772-1.77l.001-.003c34.306-79.449 102.024-141.095 185.444-167.23h.003C234.441 6.46 259.615 2.021 285.838.829h.001Q292.879.501 300 .5Zm0 45.139C159.52 45.639 45.639 159.52 45.639 300q0 4.726.171 9.411l.018.482h111.078c32.228 0 59.567 11.312 82.203 33.949s33.951 49.976 33.951 82.046v28.703h-87.451v72.658l.276.138c34.32 17.257 73.083 26.974 114.115 26.974 137.033 0 248.754-108.361 254.155-244.069l.065-1.633-.968 1.318c-2.578 3.51-5.618 6.772-9.141 9.768l-.003.003c-10.323 8.915-22.676 13.453-37.242 13.453h-71.665c-16.127 0-29.735-5.631-41.007-16.746-11.266-11.11-16.898-24.872-16.898-41.001v-29.545H260.8v-57.748c0-15.809 5.629-29.417 16.904-40.849 11.27-11.426 24.875-17.057 41.002-17.057h29.702V105.13l.013-1.024c.255-10.583 4.465-21.352 12.831-32.456 4.498-5.97 9.325-10.513 14.498-13.673l.943-.576-1.055-.328C351.743 49.642 326.339 45.64 300 45.64Z"/></g><defs><clipPath id="a"><path fill="#fff" d="M0 0h600v600H0z"/></clipPath></defs></svg>