<svg xmlns="http://www.w3.org/2000/svg" fill="none" viewBox="0 0 600 600"><g fill="#08251a" fill-rule="evenodd" clip-path="url(#a)" clip-rule="evenodd"><path d="M297.198 100.5c57.497 0 104.082 46.843 104.082 104.582 0 20.713-5.995 40.024-16.338 56.273l52.316 72.319h22.94c24.449 0 44.269 19.82 44.269 44.268v76.289c0 24.449-19.82 44.269-44.269 44.269h-76.289c-24.449 0-44.268-19.82-44.268-44.269v-76.289c0-22.93 17.435-41.789 39.771-44.043l-28.411-39.275c-15.698 9.544-34.109 15.039-53.803 15.039-15.802 0-30.779-3.538-44.191-9.865l-28.29 35.716c18.28 5.446 31.609 22.379 31.609 42.428v76.289c0 24.449-19.82 44.269-44.268 44.269h-76.289c-24.449 0-44.269-19.82-44.269-44.269v-76.289c0-24.448 19.82-44.268 44.269-44.268h30.449l49.903-63.003c-14.391-17.94-23.005-40.755-23.005-65.589 0-57.751 46.587-104.582 104.082-104.582M138.5 451.5h70.826v-70.826h-20.379l-.685.865-1.093-.865H138.5zm248.141 0h70.826v-70.826h-70.826zm-89.443-304c-31.333 0-57.082 25.584-57.082 57.582 0 32 25.741 57.581 57.082 57.581 31.34 0 57.082-25.589 57.082-57.581 0-31.99-25.75-57.582-57.082-57.582"/><path d="M542.33 0c31.71 0 57.66 25.97 57.66 57.72v484.56c0 31.75-25.94 57.72-57.66 57.72H57.66C25.95 600 0 574.03 0 542.28V57.72C0 25.97 25.95 0 57.66 0zM57.66 47C51.88 47 47 51.91 47 57.72v484.56c0 5.81 4.88 10.72 10.66 10.72h484.68c5.78 0 10.66-4.91 10.66-10.72h-.01V57.72c0-5.81-4.88-10.72-10.66-10.72z"/></g><defs><clipPath id="a"><path fill="#fff" d="M0 0h600v600H0z"/></clipPath></defs></svg>