<svg xmlns="http://www.w3.org/2000/svg" fill="none" viewBox="0 0 600 600"><path fill="#fff" fill-rule="evenodd" d="M299.582 100.5c57.497 0 104.082 46.843 104.082 104.582 0 57.737-46.573 104.581-104.082 104.581-57.507 0-104.082-46.832-104.082-104.581 0-57.751 46.587-104.582 104.082-104.582m0 47c-31.334 0-57.082 25.584-57.082 57.582 0 32 25.74 57.581 57.082 57.581 31.34 0 57.082-25.589 57.082-57.581 0-31.99-25.75-57.582-57.082-57.582" clip-rule="evenodd"/><path fill="#fff" fill-rule="evenodd" d="M299.82 0c61.5 0 115.43 23.4 160.27 69.53 44.82 46.12 67.55 107.19 67.55 181.51 0 32.53-7.05 65.55-20.94 98.13-13.78 32.32-30.99 63.59-51.14 92.94-20.1 29.28-41.91 56.8-64.82 81.8-22.82 24.9-43.65 46.61-61.91 64.52-3.93 4-8.57 7-13.73 8.85-5.03 1.8-10.17 2.71-15.28 2.71v.01c-5.09 0-10.17-.85-15.09-2.54-5.089-1.75-9.7-4.7-13.69-8.77-18.2-17.86-39.03-39.57-61.86-64.47-22.9-24.99-44.75-52.561-64.96-81.95-20.25-29.45-37.5-60.77-51.28-93.09C79.05 316.59 72 283.57 72 251.05c0-74.33 22.73-135.39 67.55-181.52C184.39 23.4 238.32 0 299.82 0m-.006 43.96c-52.457.001-97.065 19.522-132.564 58.02-35.57 38.59-53.61 88.74-53.61 149.06 0 39.31 16.44 86.09 48.87 139.06 32.15 52.51 78.34 108.48 137.33 166.4 60.04-57.91 106.49-113.87 138.09-166.37 31.89-52.97 48.06-99.77 48.06-139.09 0-60.32-18.04-110.48-53.61-149.06-35.499-38.498-80.097-58.019-132.566-58.02" clip-rule="evenodd"/></svg>